<svg xmlns="http://www.w3.org/2000/svg" width="1060" height="500" viewBox="0 0 1060 500">
<rect width="100%" height="100%" fill="#fbfbf8"/>
<text x="28.0" y="36.0" font-family="Inter, Arial, sans-serif" font-size="24" font-weight="700" fill="#111827" text-anchor="start">How complete are public rationales in override cases?</text>
<text x="28.0" y="64.0" font-family="Inter, Arial, sans-serif" font-size="14" font-weight="400" fill="#4b5563" text-anchor="start">Because availability is saturated in this fetched sample, bars group public text by length and review,</text>
<text x="28.0" y="82.0" font-family="Inter, Arial, sans-serif" font-size="14" font-weight="400" fill="#4b5563" text-anchor="start">rebuttal, and causal-language signals.</text>
<rect x="185" y="117" width="12" height="12" rx="2" fill="#2f6f73"/>
<text x="203.0" y="128.0" font-family="Inter, Arial, sans-serif" font-size="11" font-weight="400" fill="#374151" text-anchor="start">strong: 150+ words, all signals</text>
<rect x="390" y="117" width="12" height="12" rx="2" fill="#7da96b"/>
<text x="408.0" y="128.0" font-family="Inter, Arial, sans-serif" font-size="11" font-weight="400" fill="#374151" text-anchor="start">usable: 60+ words, review + signal</text>
<rect x="595" y="117" width="12" height="12" rx="2" fill="#d58c2a"/>
<text x="613.0" y="128.0" font-family="Inter, Arial, sans-serif" font-size="11" font-weight="400" fill="#374151" text-anchor="start">long, missing signals</text>
<rect x="800" y="117" width="12" height="12" rx="2" fill="#b94a48"/>
<text x="818.0" y="128.0" font-family="Inter, Arial, sans-serif" font-size="11" font-weight="400" fill="#374151" text-anchor="start">thin</text>
<line x1="185.0" x2="185.0" y1="162" y2="436" stroke="#e5e7eb"/>
<text x="185.0" y="454.0" font-family="Inter, Arial, sans-serif" font-size="11" font-weight="400" fill="#6b7280" text-anchor="middle">0%</text>
<line x1="333.2" x2="333.2" y1="162" y2="436" stroke="#e5e7eb"/>
<text x="333.2" y="454.0" font-family="Inter, Arial, sans-serif" font-size="11" font-weight="400" fill="#6b7280" text-anchor="middle">25%</text>
<line x1="481.5" x2="481.5" y1="162" y2="436" stroke="#e5e7eb"/>
<text x="481.5" y="454.0" font-family="Inter, Arial, sans-serif" font-size="11" font-weight="400" fill="#6b7280" text-anchor="middle">50%</text>
<line x1="629.8" x2="629.8" y1="162" y2="436" stroke="#e5e7eb"/>
<text x="629.8" y="454.0" font-family="Inter, Arial, sans-serif" font-size="11" font-weight="400" fill="#6b7280" text-anchor="middle">75%</text>
<line x1="778.0" x2="778.0" y1="162" y2="436" stroke="#e5e7eb"/>
<text x="778.0" y="454.0" font-family="Inter, Arial, sans-serif" font-size="11" font-weight="400" fill="#6b7280" text-anchor="middle">100%</text>
<text x="28.0" y="198.0" font-family="Inter, Arial, sans-serif" font-size="13" font-weight="600" fill="#17202a" text-anchor="start">ICLR 2026</text>
<rect x="185.0" y="181.0" width="398.6" height="22" rx="2" fill="#2f6f73"/>
<text x="384.3" y="197.0" font-family="Inter, Arial, sans-serif" font-size="10" font-weight="700" fill="#ffffff" text-anchor="middle">67%</text>
<rect x="583.6" y="181.0" width="173.7" height="22" rx="2" fill="#7da96b"/>
<text x="670.4" y="197.0" font-family="Inter, Arial, sans-serif" font-size="10" font-weight="700" fill="#ffffff" text-anchor="middle">29%</text>
<rect x="757.2" y="181.0" width="18.6" height="22" rx="2" fill="#d58c2a"/>
<rect x="775.9" y="181.0" width="2.1" height="22" rx="2" fill="#b94a48"/>
<text x="790.0" y="197.0" font-family="Inter, Arial, sans-serif" font-size="11" font-weight="400" fill="#374151" text-anchor="start">strong 941; usable 410</text>
<text x="790.0" y="214.0" font-family="Inter, Arial, sans-serif" font-size="11" font-weight="400" fill="#6b7280" text-anchor="start">understructured 44; thin 5; median words=333</text>
<text x="28.0" y="252.8" font-family="Inter, Arial, sans-serif" font-size="13" font-weight="600" fill="#17202a" text-anchor="start">ICLR 2025</text>
<rect x="185.0" y="235.8" width="341.7" height="22" rx="2" fill="#2f6f73"/>
<text x="355.8" y="251.8" font-family="Inter, Arial, sans-serif" font-size="10" font-weight="700" fill="#ffffff" text-anchor="middle">58%</text>
<rect x="526.7" y="235.8" width="207.0" height="22" rx="2" fill="#7da96b"/>
<text x="630.2" y="251.8" font-family="Inter, Arial, sans-serif" font-size="10" font-weight="700" fill="#ffffff" text-anchor="middle">35%</text>
<rect x="733.7" y="235.8" width="43.1" height="22" rx="2" fill="#d58c2a"/>
<text x="755.3" y="251.8" font-family="Inter, Arial, sans-serif" font-size="10" font-weight="700" fill="#ffffff" text-anchor="middle">7%</text>
<rect x="776.8" y="235.8" width="1.2" height="22" rx="2" fill="#b94a48"/>
<text x="790.0" y="251.8" font-family="Inter, Arial, sans-serif" font-size="11" font-weight="400" fill="#374151" text-anchor="start">strong 571; usable 346</text>
<text x="790.0" y="268.8" font-family="Inter, Arial, sans-serif" font-size="11" font-weight="400" fill="#6b7280" text-anchor="start">understructured 72; thin 2; median words=280</text>
<text x="28.0" y="307.6" font-family="Inter, Arial, sans-serif" font-size="13" font-weight="600" fill="#17202a" text-anchor="start">ICLR 2024</text>
<rect x="185.0" y="290.6" width="198.9" height="22" rx="2" fill="#2f6f73"/>
<text x="284.4" y="306.6" font-family="Inter, Arial, sans-serif" font-size="10" font-weight="700" fill="#ffffff" text-anchor="middle">34%</text>
<rect x="383.9" y="290.6" width="227.9" height="22" rx="2" fill="#7da96b"/>
<text x="497.8" y="306.6" font-family="Inter, Arial, sans-serif" font-size="10" font-weight="700" fill="#ffffff" text-anchor="middle">38%</text>
<rect x="611.8" y="290.6" width="161.6" height="22" rx="2" fill="#d58c2a"/>
<text x="692.6" y="306.6" font-family="Inter, Arial, sans-serif" font-size="10" font-weight="700" fill="#ffffff" text-anchor="middle">27%</text>
<rect x="773.5" y="290.6" width="4.5" height="22" rx="2" fill="#b94a48"/>
<text x="790.0" y="306.6" font-family="Inter, Arial, sans-serif" font-size="11" font-weight="400" fill="#374151" text-anchor="start">strong 219; usable 251</text>
<text x="790.0" y="323.6" font-family="Inter, Arial, sans-serif" font-size="11" font-weight="400" fill="#6b7280" text-anchor="start">understructured 178; thin 5; median words=242</text>
<text x="28.0" y="362.4" font-family="Inter, Arial, sans-serif" font-size="13" font-weight="600" fill="#17202a" text-anchor="start">ICML 2025</text>
<rect x="185.0" y="345.4" width="166.7" height="22" rx="2" fill="#2f6f73"/>
<text x="268.3" y="361.4" font-family="Inter, Arial, sans-serif" font-size="10" font-weight="700" fill="#ffffff" text-anchor="middle">28%</text>
<rect x="351.7" y="345.4" width="271.3" height="22" rx="2" fill="#7da96b"/>
<text x="487.3" y="361.4" font-family="Inter, Arial, sans-serif" font-size="10" font-weight="700" fill="#ffffff" text-anchor="middle">46%</text>
<rect x="623.0" y="345.4" width="135.7" height="22" rx="2" fill="#d58c2a"/>
<text x="690.8" y="361.4" font-family="Inter, Arial, sans-serif" font-size="10" font-weight="700" fill="#ffffff" text-anchor="middle">23%</text>
<rect x="758.6" y="345.4" width="19.4" height="22" rx="2" fill="#b94a48"/>
<text x="790.0" y="361.4" font-family="Inter, Arial, sans-serif" font-size="11" font-weight="400" fill="#374151" text-anchor="start">strong 43; usable 70</text>
<text x="790.0" y="378.4" font-family="Inter, Arial, sans-serif" font-size="11" font-weight="400" fill="#6b7280" text-anchor="start">understructured 35; thin 5; median words=177</text>
<text x="28.0" y="417.2" font-family="Inter, Arial, sans-serif" font-size="13" font-weight="600" fill="#17202a" text-anchor="start">NeurIPS 2025</text>
<rect x="185.0" y="400.2" width="277.2" height="22" rx="2" fill="#2f6f73"/>
<text x="323.6" y="416.2" font-family="Inter, Arial, sans-serif" font-size="10" font-weight="700" fill="#ffffff" text-anchor="middle">47%</text>
<rect x="462.2" y="400.2" width="211.8" height="22" rx="2" fill="#7da96b"/>
<text x="568.1" y="416.2" font-family="Inter, Arial, sans-serif" font-size="10" font-weight="700" fill="#ffffff" text-anchor="middle">36%</text>
<rect x="674.0" y="400.2" width="88.6" height="22" rx="2" fill="#d58c2a"/>
<text x="718.3" y="416.2" font-family="Inter, Arial, sans-serif" font-size="10" font-weight="700" fill="#ffffff" text-anchor="middle">15%</text>
<rect x="762.6" y="400.2" width="15.4" height="22" rx="2" fill="#b94a48"/>
<text x="790.0" y="416.2" font-family="Inter, Arial, sans-serif" font-size="11" font-weight="400" fill="#374151" text-anchor="start">strong 72; usable 55</text>
<text x="790.0" y="433.2" font-family="Inter, Arial, sans-serif" font-size="11" font-weight="400" fill="#6b7280" text-anchor="start">understructured 23; thin 4; median words=246</text>
<text x="28.0" y="484.0" font-family="Inter, Arial, sans-serif" font-size="11" font-weight="400" fill="#6b7280" text-anchor="start">Public evidence of rationale structure, not private AC effort or decision correctness.</text>
</svg>
