<svg xmlns="http://www.w3.org/2000/svg" width="1180" height="650" viewBox="0 0 1180 650">
<rect width="100%" height="100%" fill="#fbfbf8"/>
<text x="28.0" y="36.0" font-family="Inter, Arial, sans-serif" font-size="24" font-weight="700" fill="#111827" text-anchor="start">Do public ICLR meta-reviews show evidence of guideline-like behavior?</text>
<text x="28.0" y="64.0" font-family="Inter, Arial, sans-serif" font-size="14" font-weight="400" fill="#4b5563" text-anchor="start">Heuristic public-evidence checks inspired by AC guidance: synthesize reviews, discuss</text>
<text x="28.0" y="82.0" font-family="Inter, Arial, sans-serif" font-size="14" font-weight="400" fill="#4b5563" text-anchor="start">rebuttal/discussion, justify decisions, and write enough explanation. This is not a private compliance</text>
<text x="28.0" y="100.0" font-family="Inter, Arial, sans-serif" font-size="14" font-weight="400" fill="#4b5563" text-anchor="start">audit.</text>
<line x1="295.0" x2="295.0" y1="138" y2="586" stroke="#e5e7eb"/>
<text x="295.0" y="608.0" font-family="Inter, Arial, sans-serif" font-size="13" font-weight="400" fill="#6b7280" text-anchor="middle">0%</text>
<line x1="452.0" x2="452.0" y1="138" y2="586" stroke="#e5e7eb"/>
<text x="452.0" y="608.0" font-family="Inter, Arial, sans-serif" font-size="13" font-weight="400" fill="#6b7280" text-anchor="middle">25%</text>
<line x1="609.0" x2="609.0" y1="138" y2="586" stroke="#e5e7eb"/>
<text x="609.0" y="608.0" font-family="Inter, Arial, sans-serif" font-size="13" font-weight="400" fill="#6b7280" text-anchor="middle">50%</text>
<line x1="766.0" x2="766.0" y1="138" y2="586" stroke="#e5e7eb"/>
<text x="766.0" y="608.0" font-family="Inter, Arial, sans-serif" font-size="13" font-weight="400" fill="#6b7280" text-anchor="middle">75%</text>
<line x1="923.0" x2="923.0" y1="138" y2="586" stroke="#e5e7eb"/>
<text x="923.0" y="608.0" font-family="Inter, Arial, sans-serif" font-size="13" font-weight="400" fill="#6b7280" text-anchor="middle">100%</text>
<text x="28.0" y="177.0" font-family="Inter, Arial, sans-serif" font-size="15" font-weight="600" fill="#17202a" text-anchor="start">60+ words</text>
<rect x="295" y="150.0" width="616.1" height="15" rx="2" fill="#2f6f73"/>
<text x="919.1" y="162.0" font-family="Inter, Arial, sans-serif" font-size="12" font-weight="400" fill="#374151" text-anchor="start">98%</text>
<rect x="295" y="171.0" width="625.1" height="15" rx="2" fill="#d58c2a"/>
<text x="928.1" y="183.0" font-family="Inter, Arial, sans-serif" font-size="12" font-weight="400" fill="#374151" text-anchor="start">100%</text>
<rect x="295" y="192.0" width="628.0" height="15" rx="2" fill="#7158a8"/>
<text x="931.0" y="204.0" font-family="Inter, Arial, sans-serif" font-size="12" font-weight="400" fill="#374151" text-anchor="start">100%</text>
<text x="28.0" y="251.7" font-family="Inter, Arial, sans-serif" font-size="15" font-weight="600" fill="#17202a" text-anchor="start">Mentions reviews</text>
<rect x="295" y="224.66666666666669" width="599.9" height="15" rx="2" fill="#2f6f73"/>
<text x="902.9" y="236.7" font-family="Inter, Arial, sans-serif" font-size="12" font-weight="400" fill="#374151" text-anchor="start">96%</text>
<rect x="295" y="245.66666666666669" width="599.3" height="15" rx="2" fill="#d58c2a"/>
<text x="902.3" y="257.7" font-family="Inter, Arial, sans-serif" font-size="12" font-weight="400" fill="#374151" text-anchor="start">95%</text>
<rect x="295" y="266.6666666666667" width="599.0" height="15" rx="2" fill="#7158a8"/>
<text x="902.0" y="278.7" font-family="Inter, Arial, sans-serif" font-size="12" font-weight="400" fill="#374151" text-anchor="start">95%</text>
<text x="28.0" y="326.3" font-family="Inter, Arial, sans-serif" font-size="15" font-weight="600" fill="#17202a" text-anchor="start">Rebuttal/discussion</text>
<rect x="295" y="299.33333333333337" width="512.5" height="15" rx="2" fill="#2f6f73"/>
<text x="815.5" y="311.3" font-family="Inter, Arial, sans-serif" font-size="12" font-weight="400" fill="#374151" text-anchor="start">82%</text>
<rect x="295" y="320.33333333333337" width="528.8" height="15" rx="2" fill="#d58c2a"/>
<text x="831.8" y="332.3" font-family="Inter, Arial, sans-serif" font-size="12" font-weight="400" fill="#374151" text-anchor="start">84%</text>
<rect x="295" y="341.33333333333337" width="493.4" height="15" rx="2" fill="#7158a8"/>
<text x="796.4" y="353.3" font-family="Inter, Arial, sans-serif" font-size="12" font-weight="400" fill="#374151" text-anchor="start">79%</text>
<text x="28.0" y="401.0" font-family="Inter, Arial, sans-serif" font-size="15" font-weight="600" fill="#17202a" text-anchor="start">Strengths+weaknesses</text>
<rect x="295" y="374.0" width="217.6" height="15" rx="2" fill="#2f6f73"/>
<text x="520.6" y="386.0" font-family="Inter, Arial, sans-serif" font-size="12" font-weight="400" fill="#374151" text-anchor="start">35%</text>
<rect x="295" y="395.0" width="265.9" height="15" rx="2" fill="#d58c2a"/>
<text x="568.9" y="407.0" font-family="Inter, Arial, sans-serif" font-size="12" font-weight="400" fill="#374151" text-anchor="start">42%</text>
<rect x="295" y="416.0" width="224.3" height="15" rx="2" fill="#7158a8"/>
<text x="527.3" y="428.0" font-family="Inter, Arial, sans-serif" font-size="12" font-weight="400" fill="#374151" text-anchor="start">36%</text>
<text x="28.0" y="475.7" font-family="Inter, Arial, sans-serif" font-size="15" font-weight="600" fill="#17202a" text-anchor="start">Decision/recommendation</text>
<rect x="295" y="448.6666666666667" width="628.0" height="15" rx="2" fill="#2f6f73"/>
<text x="931.0" y="460.7" font-family="Inter, Arial, sans-serif" font-size="12" font-weight="400" fill="#374151" text-anchor="start">100%</text>
<rect x="295" y="469.6666666666667" width="628.0" height="15" rx="2" fill="#d58c2a"/>
<text x="931.0" y="481.7" font-family="Inter, Arial, sans-serif" font-size="12" font-weight="400" fill="#374151" text-anchor="start">100%</text>
<rect x="295" y="490.6666666666667" width="628.0" height="15" rx="2" fill="#7158a8"/>
<text x="931.0" y="502.7" font-family="Inter, Arial, sans-serif" font-size="12" font-weight="400" fill="#374151" text-anchor="start">100%</text>
<text x="28.0" y="550.3" font-family="Inter, Arial, sans-serif" font-size="15" font-weight="600" fill="#17202a" text-anchor="start">Causal justification</text>
<rect x="295" y="523.3333333333334" width="370.1" height="15" rx="2" fill="#2f6f73"/>
<text x="673.1" y="535.3" font-family="Inter, Arial, sans-serif" font-size="12" font-weight="400" fill="#374151" text-anchor="start">59%</text>
<rect x="295" y="544.3333333333334" width="436.1" height="15" rx="2" fill="#d58c2a"/>
<text x="739.1" y="556.3" font-family="Inter, Arial, sans-serif" font-size="12" font-weight="400" fill="#374151" text-anchor="start">69%</text>
<rect x="295" y="565.3333333333334" width="443.3" height="15" rx="2" fill="#7158a8"/>
<text x="746.3" y="577.3" font-family="Inter, Arial, sans-serif" font-size="12" font-weight="400" fill="#374151" text-anchor="start">71%</text>
<rect x="938" y="148" width="15" height="15" fill="#2f6f73"/>
<text x="960.0" y="161.0" font-family="Inter, Arial, sans-serif" font-size="12" font-weight="400" fill="#17202a" text-anchor="start">Aligned decisions (n=19624)</text>
<rect x="938" y="176" width="15" height="15" fill="#d58c2a"/>
<text x="960.0" y="189.0" font-family="Inter, Arial, sans-serif" font-size="12" font-weight="400" fill="#17202a" text-anchor="start">Override decisions (n=3044)</text>
<rect x="938" y="204" width="15" height="15" fill="#7158a8"/>
<text x="960.0" y="217.0" font-family="Inter, Arial, sans-serif" font-size="12" font-weight="400" fill="#17202a" text-anchor="start">Unanimous overrides (n=238)</text>
<text x="28.0" y="634.0" font-family="Inter, Arial, sans-serif" font-size="12" font-weight="400" fill="#6b7280" text-anchor="start">Guideline evidence = public text signals; private AC/SAC deliberation may be better or worse than what is public.</text>
</svg>
