<svg xmlns="http://www.w3.org/2000/svg" width="1180" height="650" viewBox="0 0 1180 650">
<rect width="100%" height="100%" fill="#fbfbf8"/>
<text x="28.0" y="36.0" font-family="Inter, Arial, sans-serif" font-size="24" font-weight="700" fill="#111827" text-anchor="start">Do public ICLR meta-reviews show evidence of guideline-like behavior?</text>
<text x="28.0" y="64.0" font-family="Inter, Arial, sans-serif" font-size="14" font-weight="400" fill="#4b5563" text-anchor="start">Heuristic public-evidence checks inspired by AC guidance. Saturated rows are sanity checks; the useful</text>
<text x="28.0" y="82.0" font-family="Inter, Arial, sans-serif" font-size="14" font-weight="400" fill="#4b5563" text-anchor="start">gaps are rebuttal, balance, and causal-justification signals.</text>
<rect x="295" y="117" width="13" height="13" fill="#2f6f73"/>
<text x="314.0" y="128.0" font-family="Inter, Arial, sans-serif" font-size="12" font-weight="400" fill="#17202a" text-anchor="start">Aligned decisions (n=19619)</text>
<rect x="570" y="117" width="13" height="13" fill="#d58c2a"/>
<text x="589.0" y="128.0" font-family="Inter, Arial, sans-serif" font-size="12" font-weight="400" fill="#17202a" text-anchor="start">Override decisions (n=3044)</text>
<rect x="845" y="117" width="13" height="13" fill="#7158a8"/>
<text x="864.0" y="128.0" font-family="Inter, Arial, sans-serif" font-size="12" font-weight="400" fill="#17202a" text-anchor="start">Unanimous overrides (n=238)</text>
<line x1="295.0" x2="295.0" y1="162" y2="586" stroke="#e5e7eb"/>
<text x="295.0" y="608.0" font-family="Inter, Arial, sans-serif" font-size="13" font-weight="400" fill="#6b7280" text-anchor="middle">0%</text>
<line x1="497.0" x2="497.0" y1="162" y2="586" stroke="#e5e7eb"/>
<text x="497.0" y="608.0" font-family="Inter, Arial, sans-serif" font-size="13" font-weight="400" fill="#6b7280" text-anchor="middle">25%</text>
<line x1="699.0" x2="699.0" y1="162" y2="586" stroke="#e5e7eb"/>
<text x="699.0" y="608.0" font-family="Inter, Arial, sans-serif" font-size="13" font-weight="400" fill="#6b7280" text-anchor="middle">50%</text>
<line x1="901.0" x2="901.0" y1="162" y2="586" stroke="#e5e7eb"/>
<text x="901.0" y="608.0" font-family="Inter, Arial, sans-serif" font-size="13" font-weight="400" fill="#6b7280" text-anchor="middle">75%</text>
<line x1="1103.0" x2="1103.0" y1="162" y2="586" stroke="#e5e7eb"/>
<text x="1103.0" y="608.0" font-family="Inter, Arial, sans-serif" font-size="13" font-weight="400" fill="#6b7280" text-anchor="middle">100%</text>
<text x="28.0" y="201.0" font-family="Inter, Arial, sans-serif" font-size="15" font-weight="600" fill="#17202a" text-anchor="start">60+ words</text>
<rect x="295" y="174.0" width="792.7" height="15" rx="2" fill="#2f6f73"/>
<text x="1095.7" y="186.0" font-family="Inter, Arial, sans-serif" font-size="12" font-weight="400" fill="#374151" text-anchor="start">98%</text>
<rect x="295" y="195.0" width="804.3" height="15" rx="2" fill="#d58c2a"/>
<text x="1107.3" y="207.0" font-family="Inter, Arial, sans-serif" font-size="12" font-weight="400" fill="#374151" text-anchor="start">100%</text>
<rect x="295" y="216.0" width="808.0" height="15" rx="2" fill="#7158a8"/>
<text x="1111.0" y="228.0" font-family="Inter, Arial, sans-serif" font-size="12" font-weight="400" fill="#374151" text-anchor="start">100%</text>
<text x="28.0" y="271.7" font-family="Inter, Arial, sans-serif" font-size="15" font-weight="600" fill="#17202a" text-anchor="start">Mentions reviews</text>
<rect x="295" y="244.66666666666669" width="771.8" height="15" rx="2" fill="#2f6f73"/>
<text x="1074.8" y="256.7" font-family="Inter, Arial, sans-serif" font-size="12" font-weight="400" fill="#374151" text-anchor="start">96%</text>
<rect x="295" y="265.6666666666667" width="771.1" height="15" rx="2" fill="#d58c2a"/>
<text x="1074.1" y="277.7" font-family="Inter, Arial, sans-serif" font-size="12" font-weight="400" fill="#374151" text-anchor="start">95%</text>
<rect x="295" y="286.6666666666667" width="770.7" height="15" rx="2" fill="#7158a8"/>
<text x="1073.7" y="298.7" font-family="Inter, Arial, sans-serif" font-size="12" font-weight="400" fill="#374151" text-anchor="start">95%</text>
<text x="28.0" y="342.3" font-family="Inter, Arial, sans-serif" font-size="15" font-weight="600" fill="#17202a" text-anchor="start">Rebuttal/discussion</text>
<rect x="295" y="315.33333333333337" width="659.3" height="15" rx="2" fill="#2f6f73"/>
<text x="962.3" y="327.3" font-family="Inter, Arial, sans-serif" font-size="12" font-weight="400" fill="#374151" text-anchor="start">82%</text>
<rect x="295" y="336.33333333333337" width="680.3" height="15" rx="2" fill="#d58c2a"/>
<text x="983.3" y="348.3" font-family="Inter, Arial, sans-serif" font-size="12" font-weight="400" fill="#374151" text-anchor="start">84%</text>
<rect x="295" y="357.33333333333337" width="634.9" height="15" rx="2" fill="#7158a8"/>
<text x="937.9" y="369.3" font-family="Inter, Arial, sans-serif" font-size="12" font-weight="400" fill="#374151" text-anchor="start">79%</text>
<text x="28.0" y="413.0" font-family="Inter, Arial, sans-serif" font-size="15" font-weight="600" fill="#17202a" text-anchor="start">Strengths+weaknesses</text>
<rect x="295" y="386.0" width="280.0" height="15" rx="2" fill="#2f6f73"/>
<text x="583.0" y="398.0" font-family="Inter, Arial, sans-serif" font-size="12" font-weight="400" fill="#374151" text-anchor="start">35%</text>
<rect x="295" y="407.0" width="342.2" height="15" rx="2" fill="#d58c2a"/>
<text x="645.2" y="419.0" font-family="Inter, Arial, sans-serif" font-size="12" font-weight="400" fill="#374151" text-anchor="start">42%</text>
<rect x="295" y="428.0" width="288.6" height="15" rx="2" fill="#7158a8"/>
<text x="591.6" y="440.0" font-family="Inter, Arial, sans-serif" font-size="12" font-weight="400" fill="#374151" text-anchor="start">36%</text>
<text x="28.0" y="483.7" font-family="Inter, Arial, sans-serif" font-size="15" font-weight="600" fill="#17202a" text-anchor="start">Decision/recommendation</text>
<rect x="295" y="456.6666666666667" width="808.0" height="15" rx="2" fill="#2f6f73"/>
<text x="1111.0" y="468.7" font-family="Inter, Arial, sans-serif" font-size="12" font-weight="400" fill="#374151" text-anchor="start">100%</text>
<rect x="295" y="477.6666666666667" width="808.0" height="15" rx="2" fill="#d58c2a"/>
<text x="1111.0" y="489.7" font-family="Inter, Arial, sans-serif" font-size="12" font-weight="400" fill="#374151" text-anchor="start">100%</text>
<rect x="295" y="498.6666666666667" width="808.0" height="15" rx="2" fill="#7158a8"/>
<text x="1111.0" y="510.7" font-family="Inter, Arial, sans-serif" font-size="12" font-weight="400" fill="#374151" text-anchor="start">100%</text>
<text x="28.0" y="554.3" font-family="Inter, Arial, sans-serif" font-size="15" font-weight="600" fill="#17202a" text-anchor="start">Causal justification</text>
<rect x="295" y="527.3333333333334" width="476.2" height="15" rx="2" fill="#2f6f73"/>
<text x="779.2" y="539.3" font-family="Inter, Arial, sans-serif" font-size="12" font-weight="400" fill="#374151" text-anchor="start">59%</text>
<rect x="295" y="548.3333333333334" width="561.1" height="15" rx="2" fill="#d58c2a"/>
<text x="864.1" y="560.3" font-family="Inter, Arial, sans-serif" font-size="12" font-weight="400" fill="#374151" text-anchor="start">69%</text>
<rect x="295" y="569.3333333333334" width="570.4" height="15" rx="2" fill="#7158a8"/>
<text x="873.4" y="581.3" font-family="Inter, Arial, sans-serif" font-size="12" font-weight="400" fill="#374151" text-anchor="start">71%</text>
<text x="28.0" y="634.0" font-family="Inter, Arial, sans-serif" font-size="12" font-weight="400" fill="#6b7280" text-anchor="start">Guideline evidence = public text signals; private AC/SAC deliberation may be better or worse than what is public.</text>
</svg>
